<svg width="47" height="42" viewBox="0 0 47 42" fill="none" xmlns="http://www.w3.org/2000/svg">
<path fill-rule="evenodd" clip-rule="evenodd" d="M0 21.5C0 20.7234 0.309452 19.9787 0.860278 19.4296C1.4111 18.8804 2.15819 18.572 2.93717 18.572H36.9672L24.355 6.0048C23.8035 5.45499 23.4937 4.70929 23.4937 3.93174C23.4937 3.1542 23.8035 2.4085 24.355 1.85869C24.9066 1.30888 25.6546 1 26.4345 1C27.2145 1 27.9625 1.30888 28.5141 1.85869L46.1371 19.4269C46.4106 19.6989 46.6276 20.022 46.7757 20.3778C46.9238 20.7335 47 21.1149 47 21.5C47 21.8851 46.9238 22.2665 46.7757 22.6222C46.6276 22.978 46.4106 23.3011 46.1371 23.5731L28.5141 41.1413C27.9625 41.6911 27.2145 42 26.4345 42C25.6546 42 24.9066 41.6911 24.355 41.1413C23.8035 40.5915 23.4937 39.8458 23.4937 39.0683C23.4937 38.2907 23.8035 37.545 24.355 36.9952L36.9672 24.428H2.93717C2.15819 24.428 1.4111 24.1196 0.860278 23.5704C0.309452 23.0213 0 22.2766 0 21.5Z" fill="white"/>
<path fill-rule="evenodd" clip-rule="evenodd" d="M0 20.5C0 19.7234 0.309452 18.9787 0.860278 18.4296C1.4111 17.8804 2.15819 17.572 2.93717 17.572H36.9672L24.355 5.0048C23.8035 4.45499 23.4937 3.70929 23.4937 2.93174C23.4937 2.1542 23.8035 1.4085 24.355 0.858688C24.9066 0.30888 25.6546 0 26.4345 0C27.2145 0 27.9625 0.30888 28.5141 0.858688L46.1371 18.4269C46.4106 18.6989 46.6276 19.022 46.7757 19.3778C46.9238 19.7335 47 20.1149 47 20.5C47 20.8851 46.9238 21.2665 46.7757 21.6222C46.6276 21.978 46.4106 22.3011 46.1371 22.5731L28.5141 40.1413C27.9625 40.6911 27.2145 41 26.4345 41C25.6546 41 24.9066 40.6911 24.355 40.1413C23.8035 39.5915 23.4937 38.8458 23.4937 38.0683C23.4937 37.2907 23.8035 36.545 24.355 35.9952L36.9672 23.428H2.93717C2.15819 23.428 1.4111 23.1196 0.860278 22.5704C0.309452 22.0213 0 21.2766 0 20.5Z" fill="yellow"/>
</svg>
